<svg xmlns="http://www.w3.org/2000/svg" width="14" height="16"><path data-name="storage copy" d="M13.544 8.82l.01.01-6 4-.01-.01a.914.914 0 01-1.089 0l-.01.01-6-4 .01-.01A.984.984 0 010 8a1 1 0 011-1 1.021 1.021 0 01.544.18l.01-.01L7 10.8l5.445-3.63.01.01A1.021 1.021 0 0113 7a1 1 0 011 1 .985.985 0 01-.456.82zm0-3l.01.01-6 4-.01-.01a.914.914 0 01-1.089 0l-.01.01-6-4 .01-.01a.966.966 0 010-1.64l-.01-.01 6-4 .01.01a.914.914 0 011.089 0l.01-.01 6 4-.01.01a.965.965 0 010 1.64zM7 2.2L2.8 5 7 7.8l2.71-1.81L11.197 5zM1 10a1.021 1.021 0 01.544.18l.01-.01L7 13.8l5.445-3.63.01.01A1.021 1.021 0 0113 10a1 1 0 011 1 .985.985 0 01-.456.82l.01.01-6 4-.01-.01a.914.914 0 01-1.089 0l-.01.01-6-4 .01-.01A.984.984 0 010 11a1 1 0 011-1z" fill="#fff" fill-rule="evenodd"/></svg>