<svg width="14" height="15" xmlns="http://www.w3.org/2000/svg"><path fill-rule="evenodd" clip-rule="evenodd" d="M11.464 8.651A6.914 6.914 0 0012 6c0-3.313-2.239-6-5-6-2.762 0-5 2.687-5 6 0 .957.203 1.848.535 2.651C.998 9.935 0 11.841 0 14a1 1 0 102 0c0-1.437.615-2.724 1.586-3.636.895 1.008 2.09 1.637 3.414 1.637 1.323 0 2.518-.629 3.413-1.637A4.975 4.975 0 0112 14a1 1 0 102 0c0-2.159-.999-4.065-2.536-5.349zM7 10.001C5.343 10.001 4 8.21 4 6c0-2.209 1.343-3.999 3-3.999S10 3.791 10 6c0 2.21-1.343 4.001-3 4.001z"/></svg>